#define 1506162353524_width 430
#define 1506162353524_height 50
static char 1506162353524_bits[] = {
  0x00, 0x00, 0x00, 0x00, 0x00, 0x00, 0x00, 0x00, 0x00, 0x00, 0x00, 0x00, 
  0x00, 0x00, 0x00, 0x00, 0x00, 0x00, 0x00, 0x00, 0x00, 0x00, 0x00, 0x00, 
  0x00, 0x00, 0x00, 0x00, 0x00, 0x00, 0x00, 0x00, 0x00, 0x00, 0x00, 0x00, 
  0x00, 0x00, 0x00, 0x00, 0x00, 0x00, 0x00, 0x00, 0x00, 0x00, 0x00, 0x00, 
  0x00, 0x00, 0x00, 0x00, 0x00, 0x00, 0x00, 0x00, 0x00, 0x00, 0x00, 0x00, 
  0x00, 0x00, 0x00, 0x00, 0x00, 0x00, 0x00, 0x00, 0x00, 0x00, 0x00, 0x00, 
  0x00, 0x00, 0x00, 0x00, 0x00, 0x00, 0x00, 0x00, 0x00, 0x00, 0x00, 0x00, 
  0x00, 0x00, 0x00, 0x00, 0x00, 0x00, 0x00, 0x00, 0x00, 0x00, 0x00, 0x00, 
  0x00, 0x00, 0x00, 0x00, 0x00, 0x00, 0x00, 0x00, 0x00, 0x00, 0x00, 0x00, 
  0x00, 0x00, 0x00, 0x00, 0x00, 0x00, 0x00, 0x00, 0x00, 0x00, 0x00, 0x00, 
  0x00, 0x00, 0x00, 0x00, 0x00, 0x00, 0x00, 0xFF, 0x0F, 0x00, 0x00, 0x00, 
  0xF8, 0x7F, 0x00, 0x00, 0x00, 0x00, 0x00, 0x00, 0x00, 0x00, 0x00, 0x00, 
  0x00, 0x00, 0x00, 0x00, 0x00, 0x00, 0x00, 0xFE, 0xFF, 0xFF, 0xFF, 0xFF, 
  0xFF, 0xFF, 0xFF, 0x1F, 0x00, 0x00, 0x00, 0x00, 0x00, 0x00, 0x00, 0x00, 
  0x00, 0x00, 0x00, 0x00, 0x00, 0x00, 0x00, 0x00, 0x00, 0x00, 0x00, 0x00, 
  0x00, 0xFF, 0x0F, 0x00, 0x00, 0x00, 0xF8, 0x7F, 0x00, 0x00, 0x00, 0x00, 
  0x00, 0x00, 0x00, 0x00, 0x00, 0x00, 0x00, 0x00, 0x00, 0x00, 0x00, 0x00, 
  0x00, 0xFE, 0xFF, 0xFF, 0xFF, 0xFF, 0xFF, 0xFF, 0xFF, 0x1F, 0x00, 0x00, 
  0x00, 0x00, 0x00, 0x00, 0x00, 0x00, 0x00, 0x00, 0x00, 0x00, 0x00, 0x00, 
  0x00, 0x00, 0x00, 0x00, 0x00, 0x00, 0x00, 0xFF, 0x0F, 0x00, 0x00, 0x00, 
  0xF8, 0x7F, 0x00, 0x00, 0x00, 0x00, 0x00, 0x00, 0x00, 0x00, 0x00, 0x00, 
  0x00, 0x00, 0x00, 0x00, 0x00, 0x00, 0x00, 0xFE, 0xFF, 0xFF, 0xFF, 0xFF, 
  0xFF, 0xFF, 0xFF, 0x1F, 0x00, 0x00, 0x00, 0x00, 0x00, 0x00, 0x00, 0x00, 
  0x00, 0x00, 0x00, 0x00, 0x00, 0x00, 0x00, 0x00, 0x00, 0x00, 0x00, 0x00, 
  0x00, 0xFF, 0x0F, 0x00, 0x00, 0x00, 0xF8, 0x7F, 0x00, 0x00, 0x00, 0x00, 
  0x00, 0x00, 0x00, 0x00, 0x00, 0x00, 0x00, 0x00, 0x00, 0x00, 0x00, 0x00, 
  0x00, 0xFE, 0xFF, 0xFF, 0xFF, 0xFF, 0xFF, 0xFF, 0xFF, 0x1F, 0x00, 0x00, 
  0x00, 0x00, 0x00, 0x00, 0x00, 0x00, 0x00, 0x00, 0x00, 0x00, 0x00, 0x00, 
  0x00, 0x00, 0x00, 0x00, 0x00, 0x00, 0x00, 0x00, 0x00, 0x00, 0x00, 0x00, 
  0x00, 0x00, 0x00, 0x00, 0x00, 0x00, 0x00, 0x00, 0x00, 0x00, 0x00, 0x00, 
  0x00, 0x80, 0x40, 0x00, 0x00, 0x00, 0x00, 0x00, 0x00, 0x00, 0x00, 0x00, 
  0x00, 0x00, 0x00, 0x00, 0x00, 0x00, 0x00, 0x00, 0x00, 0x00, 0x00, 0x00, 
  0x00, 0x00, 0x00, 0x00, 0x00, 0x00, 0x00, 0x00, 0x00, 0x00, 0x00, 0x00, 
  0x00, 0x00, 0x00, 0x00, 0x00, 0x00, 0x00, 0x00, 0x00, 0x00, 0x00, 0x00, 
  0x00, 0x00, 0x00, 0x00, 0x00, 0x00, 0x00, 0x80, 0x40, 0x00, 0x00, 0x00, 
  0x00, 0x00, 0x00, 0x00, 0x00, 0x00, 0x00, 0x00, 0x00, 0x00, 0x00, 0x00, 
  0x00, 0x00, 0x00, 0x00, 0x00, 0x00, 0x00, 0x00, 0x00, 0x00, 0x00, 0x00, 
  0x00, 0x00, 0x00, 0x00, 0x00, 0x00, 0x00, 0x00, 0x00, 0x00, 0x00, 0x00, 
  0x00, 0x00, 0x00, 0x00, 0x00, 0x00, 0x00, 0x00, 0x00, 0x00, 0x00, 0x00, 
  0x00, 0x80, 0x40, 0x00, 0x00, 0x00, 0x00, 0x00, 0x00, 0x00, 0x00, 0x00, 
  0x00, 0x00, 0x00, 0x00, 0x00, 0x00, 0x00, 0x00, 0x00, 0x00, 0x00, 0x00, 
  0x00, 0x00, 0x00, 0x00, 0x00, 0x00, 0x00, 0x00, 0x00, 0x00, 0x00, 0x00, 
  0x00, 0x00, 0x00, 0x00, 0x00, 0x00, 0x00, 0x00, 0x00, 0x00, 0x00, 0x00, 
  0x00, 0x00, 0x00, 0x00, 0x00, 0x00, 0x00, 0x80, 0x40, 0x00, 0x00, 0x00, 
  0x00, 0x00, 0x00, 0x00, 0x00, 0x00, 0x00, 0x00, 0x00, 0x00, 0x00, 0x00, 
  0x00, 0x00, 0x00, 0x00, 0x00, 0x00, 0x00, 0x00, 0x00, 0x00, 0x00, 0x00, 
  0x00, 0x00, 0x00, 0x00, 0x00, 0x00, 0x00, 0x00, 0x00, 0x00, 0x00, 0x00, 
  0x00, 0x00, 0x00, 0x00, 0x00, 0x00, 0x00, 0x00, 0x00, 0x00, 0x00, 0x00, 
  0x00, 0x80, 0x40, 0x00, 0x00, 0x00, 0x00, 0x00, 0x00, 0x00, 0x00, 0x00, 
  0x00, 0x00, 0x00, 0x00, 0x00, 0x00, 0xF8, 0xFF, 0xFF, 0xFF, 0xFF, 0xFF, 
  0xFF, 0xFF, 0xFF, 0xFF, 0xFF, 0xFF, 0xFF, 0xFF, 0xFF, 0xFF, 0xFF, 0xFF, 
  0xFF, 0xFF, 0xFF, 0x1F, 0x00, 0xF8, 0xFF, 0xFF, 0xFF, 0xFF, 0xFF, 0xFF, 
  0xFF, 0xFF, 0xFF, 0xFF, 0xFF, 0xFF, 0xFF, 0xFF, 0xC0, 0xFF, 0xFF, 0xFF, 
  0xFF, 0xFF, 0xFF, 0xFF, 0xFF, 0xFF, 0xFF, 0xFF, 0xFF, 0xFF, 0xFF, 0x03, 
  0x80, 0xFF, 0xFF, 0x7F, 0x00, 0x00, 0x00, 0x00, 0x00, 0xF0, 0xFF, 0xFF, 
  0x0F, 0x00, 0x00, 0x00, 0x00, 0x00, 0xFE, 0xFF, 0xFF, 0x01, 0x00, 0x80, 
  0xFF, 0xFF, 0x7F, 0x00, 0x00, 0x00, 0x00, 0x00, 0xFC, 0xFF, 0xFF, 0x03, 
  0x00, 0x80, 0x40, 0x00, 0x00, 0xF0, 0xFF, 0xFF, 0x0F, 0x00, 0x00, 0x00, 
  0x00, 0xC0, 0xFF, 0xFF, 0x3F, 0x00, 0x80, 0x00, 0x0C, 0x40, 0x00, 0x00, 
  0x00, 0x00, 0x00, 0x10, 0x80, 0x01, 0x08, 0x00, 0x00, 0x00, 0x00, 0x00, 
  0x02, 0x30, 0x00, 0x01, 0x00, 0x80, 0x00, 0x0C, 0x40, 0x00, 0x00, 0x00, 
  0x00, 0x00, 0x04, 0x60, 0x00, 0x02, 0x00, 0x80, 0x40, 0x00, 0x00, 0x10, 
  0x80, 0x01, 0x08, 0x00, 0x00, 0x00, 0x00, 0x40, 0x00, 0x06, 0x20, 0x00, 
  0x80, 0x00, 0x0C, 0x40, 0x00, 0x00, 0x00, 0x00, 0x00, 0x10, 0x80, 0x01, 
  0x08, 0x00, 0x00, 0x00, 0x00, 0x00, 0x02, 0x30, 0x00, 0x01, 0x00, 0x80, 
  0x00, 0x0C, 0x40, 0x00, 0x00, 0x00, 0x00, 0x00, 0x04, 0x60, 0x00, 0x02, 
  0x00, 0x80, 0x40, 0x00, 0x00, 0x10, 0x80, 0x01, 0x08, 0x00, 0x00, 0x00, 
  0x00, 0x40, 0x00, 0x06, 0x20, 0x00, 0x80, 0x00, 0x0C, 0x40, 0x00, 0x00, 
  0x00, 0x00, 0x00, 0x10, 0x80, 0x01, 0x08, 0x00, 0x00, 0x00, 0x00, 0x00, 
  0x02, 0x30, 0x00, 0x01, 0x00, 0x80, 0x00, 0x0C, 0x40, 0x00, 0x00, 0x00, 
  0x00, 0x00, 0x04, 0x60, 0x00, 0x02, 0x00, 0x80, 0x40, 0x00, 0x00, 0x10, 
  0x80, 0x01, 0x08, 0x00, 0x00, 0x00, 0x00, 0x40, 0x00, 0x06, 0x20, 0x00, 
  0x80, 0x00, 0x0C, 0x40, 0x00, 0x00, 0x00, 0x00, 0x00, 0x10, 0x80, 0x01, 
  0x08, 0x00, 0x00, 0x00, 0x00, 0x00, 0x02, 0x30, 0x00, 0x01, 0x00, 0x80, 
  0x00, 0x0C, 0x40, 0x00, 0x00, 0x00, 0x00, 0x00, 0x04, 0x60, 0x00, 0x02, 
  0x00, 0x80, 0x40, 0x00, 0x00, 0x10, 0x80, 0x01, 0x08, 0x00, 0x00, 0x00, 
  0x00, 0x40, 0x00, 0x06, 0x20, 0x00, 0x80, 0x00, 0x0C, 0x40, 0x00, 0x00, 
  0x00, 0x00, 0x00, 0x10, 0x80, 0x01, 0x08, 0x00, 0x00, 0x00, 0x00, 0x00, 
  0x02, 0x30, 0x00, 0x01, 0x00, 0x80, 0x00, 0x0C, 0x40, 0x00, 0x00, 0x00, 
  0x00, 0x00, 0x04, 0x60, 0x00, 0x02, 0x00, 0x80, 0x40, 0x00, 0x00, 0x10, 
  0x80, 0x01, 0x08, 0x00, 0x00, 0x00, 0x00, 0x40, 0x00, 0x06, 0x20, 0x00, 
  0x80, 0x00, 0x0C, 0x40, 0x00, 0x00, 0x00, 0x00, 0x00, 0x10, 0x80, 0x01, 
  0x08, 0x00, 0x00, 0x00, 0x00, 0x00, 0x02, 0x30, 0x00, 0x01, 0x00, 0x80, 
  0x00, 0x0C, 0x40, 0x00, 0x00, 0x00, 0x00, 0x00, 0x04, 0x60, 0x00, 0x02, 
  0x00, 0x80, 0x40, 0x00, 0x00, 0x10, 0x80, 0x01, 0x08, 0x00, 0x00, 0x00, 
  0x00, 0x40, 0x00, 0x06, 0x20, 0x00, 0x80, 0x00, 0x0C, 0x40, 0x00, 0x00, 
  0x00, 0x00, 0x00, 0x10, 0x80, 0x01, 0x08, 0x00, 0x00, 0x00, 0x00, 0x00, 
  0x02, 0x30, 0x00, 0x01, 0x00, 0x80, 0x00, 0x0C, 0x40, 0x00, 0x00, 0x00, 
  0x00, 0x00, 0x04, 0x60, 0x00, 0x02, 0x00, 0x80, 0x40, 0x00, 0x00, 0x10, 
  0x80, 0x01, 0x08, 0x00, 0x00, 0x00, 0x00, 0x40, 0x00, 0x06, 0x20, 0x00, 
  0x80, 0x00, 0x0C, 0x40, 0x00, 0x00, 0x00, 0x00, 0x00, 0x10, 0x80, 0x01, 
  0x08, 0x00, 0x00, 0x00, 0x00, 0x00, 0x02, 0x30, 0x00, 0x01, 0x00, 0x80, 
  0x00, 0x0C, 0x40, 0x00, 0x00, 0x00, 0x00, 0x00, 0x04, 0x60, 0x00, 0x02, 
  0x00, 0x80, 0x40, 0x00, 0x00, 0x10, 0x80, 0x01, 0x08, 0x00, 0x00, 0x00, 
  0x00, 0x40, 0x00, 0x06, 0x20, 0x00, 0x80, 0x00, 0x0C, 0x40, 0x00, 0x00, 
  0x00, 0x00, 0x00, 0x10, 0x80, 0x01, 0x08, 0x00, 0x00, 0x00, 0x00, 0x00, 
  0x02, 0x30, 0x00, 0x01, 0x00, 0x80, 0x00, 0x0C, 0x40, 0x00, 0x00, 0x00, 
  0x00, 0x00, 0x04, 0x60, 0x00, 0x02, 0x00, 0x80, 0x40, 0x00, 0x00, 0x10, 
  0x80, 0x01, 0x08, 0x00, 0x00, 0x00, 0x00, 0x40, 0x00, 0x06, 0x20, 0x00, 
  0x80, 0x00, 0x0C, 0x40, 0x00, 0x00, 0x00, 0x00, 0x00, 0x10, 0x80, 0x01, 
  0x08, 0x00, 0x00, 0x00, 0x00, 0x00, 0x02, 0x30, 0x00, 0x01, 0x00, 0x80, 
  0x00, 0x0C, 0x40, 0x00, 0x00, 0x00, 0x00, 0x00, 0x04, 0x60, 0x00, 0x02, 
  0x00, 0x80, 0x40, 0x00, 0x00, 0x10, 0x80, 0x01, 0x08, 0x00, 0x00, 0x00, 
  0x00, 0x40, 0x00, 0x06, 0x20, 0x00, 0x80, 0x00, 0x0C, 0x40, 0x00, 0x00, 
  0x00, 0x00, 0x00, 0x10, 0x80, 0x01, 0x08, 0x00, 0x00, 0x00, 0x00, 0x00, 
  0x02, 0x30, 0x00, 0x01, 0x00, 0x80, 0x00, 0x0C, 0x40, 0x00, 0x00, 0x00, 
  0x00, 0x00, 0x04, 0x60, 0x00, 0x02, 0x00, 0x80, 0x40, 0x00, 0x00, 0x10, 
  0x80, 0x01, 0x08, 0x00, 0x00, 0x00, 0x00, 0x40, 0x00, 0x06, 0x20, 0x00, 
  0x80, 0x00, 0x0C, 0x40, 0x00, 0x00, 0x00, 0x00, 0x00, 0x10, 0x80, 0x01, 
  0x08, 0x00, 0x00, 0x00, 0x00, 0x00, 0x02, 0x30, 0x00, 0x01, 0x00, 0x80, 
  0x00, 0x0C, 0x40, 0x00, 0x00, 0x00, 0x00, 0x00, 0x04, 0x60, 0x00, 0x02, 
  0x00, 0x80, 0x40, 0x00, 0x00, 0x10, 0x80, 0x01, 0x08, 0x00, 0x00, 0x00, 
  0x00, 0x40, 0x00, 0x06, 0x20, 0x00, 0x80, 0x00, 0x0C, 0x40, 0x00, 0x00, 
  0x00, 0x00, 0x00, 0x10, 0x80, 0x01, 0x08, 0x00, 0x00, 0x00, 0x00, 0x00, 
  0x02, 0x30, 0x00, 0x01, 0x00, 0x80, 0x00, 0x0C, 0x40, 0x00, 0x00, 0x00, 
  0x00, 0x00, 0x04, 0x60, 0x00, 0x02, 0x00, 0x80, 0x40, 0x00, 0x00, 0x10, 
  0x80, 0x01, 0x08, 0x00, 0x00, 0x00, 0x00, 0x40, 0x00, 0x06, 0x20, 0x00, 
  0x80, 0x00, 0x0C, 0x40, 0x00, 0x00, 0x00, 0x00, 0x00, 0x10, 0x80, 0x01, 
  0x08, 0x00, 0x00, 0x00, 0x00, 0x00, 0x02, 0x30, 0x00, 0x01, 0x00, 0x80, 
  0x00, 0x0C, 0x40, 0x00, 0x00, 0x00, 0x00, 0x00, 0x04, 0x60, 0x00, 0x02, 
  0x00, 0x80, 0x40, 0x00, 0x00, 0x10, 0x80, 0x01, 0x08, 0x00, 0x00, 0x00, 
  0x00, 0x40, 0x00, 0x06, 0x20, 0x00, 0x80, 0x00, 0x0C, 0x40, 0x00, 0x00, 
  0x00, 0x00, 0x00, 0x10, 0x80, 0x01, 0x08, 0x00, 0x00, 0x00, 0x00, 0x00, 
  0x02, 0x30, 0x00, 0x01, 0x00, 0x80, 0x00, 0x0C, 0x40, 0x00, 0x00, 0x00, 
  0x00, 0x00, 0x04, 0x60, 0x00, 0x02, 0x00, 0x80, 0x40, 0x00, 0x00, 0x10, 
  0x80, 0x01, 0x08, 0x00, 0x00, 0x00, 0x00, 0x40, 0x00, 0x06, 0x20, 0x00, 
  0x80, 0x00, 0x0C, 0x40, 0x00, 0x00, 0x00, 0x00, 0x00, 0x10, 0x80, 0x01, 
  0x08, 0x00, 0x00, 0x00, 0x00, 0x00, 0x02, 0x30, 0x00, 0x01, 0x00, 0x80, 
  0x00, 0x0C, 0x40, 0x00, 0x00, 0x00, 0x00, 0x00, 0x04, 0x60, 0x00, 0x02, 
  0x00, 0x80, 0x40, 0x00, 0x00, 0x10, 0x80, 0x01, 0x08, 0x00, 0x00, 0x00, 
  0x00, 0x40, 0x00, 0x06, 0x20, 0x00, 0x80, 0x00, 0x0C, 0x40, 0x00, 0x00, 
  0x00, 0x00, 0x00, 0x10, 0x80, 0x01, 0x08, 0x00, 0x00, 0x00, 0x00, 0x00, 
  0x02, 0x30, 0x00, 0x01, 0x00, 0x80, 0x00, 0x0C, 0x40, 0x00, 0x00, 0x00, 
  0x00, 0x00, 0x04, 0x60, 0x00, 0x02, 0x00, 0x80, 0x40, 0x00, 0x00, 0x10, 
  0x80, 0x01, 0x08, 0x00, 0x00, 0x00, 0x00, 0x40, 0x00, 0x06, 0x20, 0x00, 
  0x80, 0x00, 0x0C, 0x40, 0x00, 0x00, 0x00, 0x00, 0x00, 0x10, 0x80, 0x01, 
  0x08, 0x00, 0x00, 0x00, 0x00, 0x00, 0x02, 0x30, 0x00, 0x01, 0x00, 0x80, 
  0x00, 0x0C, 0x40, 0x00, 0x00, 0x00, 0x00, 0x00, 0x04, 0x60, 0x00, 0x02, 
  0x00, 0x80, 0x40, 0x00, 0x00, 0x10, 0x80, 0x01, 0x08, 0x00, 0x00, 0x00, 
  0x00, 0x40, 0x00, 0x06, 0x20, 0x00, 0x80, 0x00, 0x0C, 0x40, 0x00, 0x00, 
  0x00, 0x00, 0x00, 0x10, 0x80, 0x01, 0x08, 0x00, 0x00, 0x00, 0x00, 0x00, 
  0x02, 0x30, 0x00, 0x01, 0x00, 0x80, 0x00, 0x0C, 0x40, 0x00, 0x00, 0x00, 
  0x00, 0x00, 0x04, 0x60, 0x00, 0x02, 0x00, 0x80, 0x40, 0x00, 0x00, 0x10, 
  0x80, 0x01, 0x08, 0x00, 0x00, 0x00, 0x00, 0x40, 0x00, 0x06, 0x20, 0x00, 
  0x80, 0x00, 0x0C, 0x40, 0x00, 0x00, 0x00, 0x00, 0x00, 0x10, 0x80, 0x01, 
  0x08, 0x00, 0x00, 0x00, 0x00, 0x00, 0x02, 0x30, 0x00, 0x01, 0x00, 0x80, 
  0x00, 0x0C, 0x40, 0x00, 0x00, 0x00, 0x00, 0x00, 0x04, 0x60, 0x00, 0x02, 
  0x00, 0x80, 0x40, 0x00, 0x00, 0x10, 0x80, 0x01, 0x08, 0x00, 0x00, 0x00, 
  0x00, 0x40, 0x00, 0x06, 0x20, 0x00, 0x80, 0x00, 0x0C, 0x40, 0x00, 0x00, 
  0x00, 0x00, 0x00, 0x10, 0x80, 0x01, 0x08, 0x00, 0x00, 0x00, 0x00, 0x00, 
  0x02, 0x30, 0x00, 0x21, 0x00, 0x84, 0x00, 0x0C, 0x40, 0x00, 0x00, 0x00, 
  0x00, 0x00, 0x04, 0x60, 0x00, 0x02, 0x00, 0x80, 0x40, 0x00, 0x00, 0x10, 
  0x80, 0x01, 0x08, 0x00, 0x00, 0x00, 0x00, 0x40, 0x00, 0x06, 0x20, 0x00, 
  0x86, 0x00, 0x0C, 0x40, 0x00, 0x00, 0x00, 0x00, 0x00, 0x10, 0x80, 0x01, 
  0x08, 0x00, 0x00, 0x00, 0x00, 0x00, 0x02, 0x30, 0x00, 0x21, 0x00, 0x84, 
  0x00, 0x0C, 0x40, 0x00, 0x00, 0x00, 0x00, 0x00, 0x04, 0x60, 0x00, 0x02, 
  0x00, 0x80, 0x40, 0x00, 0x00, 0x10, 0x80, 0x01, 0x08, 0x00, 0x00, 0x00, 
  0x00, 0x40, 0x00, 0x06, 0x20, 0x0C, 0x86, 0x00, 0x0C, 0x40, 0x00, 0x00, 
  0x00, 0x00, 0x00, 0x10, 0x80, 0x01, 0x08, 0x00, 0x00, 0x00, 0x00, 0x00, 
  0x02, 0x30, 0x00, 0x41, 0x00, 0x82, 0x00, 0x0C, 0x40, 0x00, 0x00, 0x00, 
  0x00, 0x00, 0x04, 0x60, 0x00, 0x02, 0x00, 0x80, 0x40, 0x00, 0x00, 0x10, 
  0x80, 0x01, 0x08, 0x00, 0x00, 0x00, 0x00, 0x40, 0x00, 0x06, 0x20, 0x0C, 
  0x86, 0x00, 0x0C, 0x40, 0x00, 0x00, 0x00, 0x00, 0x00, 0x10, 0x80, 0x01, 
  0x08, 0x00, 0x00, 0x00, 0x00, 0x00, 0x02, 0x30, 0x00, 0x81, 0x00, 0x81, 
  0x00, 0x0C, 0x40, 0x00, 0x00, 0x00, 0x00, 0x00, 0x04, 0x60, 0x00, 0x02, 
  0x00, 0x80, 0x40, 0x00, 0x00, 0x10, 0x80, 0x01, 0x08, 0x00, 0x00, 0x00, 
  0x00, 0x40, 0x00, 0x06, 0x20, 0x0C, 0x86, 0x00, 0x0C, 0x40, 0x00, 0x00, 
  0x00, 0x00, 0x00, 0x10, 0x80, 0x01, 0x08, 0x00, 0x00, 0x00, 0x00, 0x00, 
  0x02, 0x30, 0x00, 0x01, 0xDB, 0x80, 0x00, 0x0C, 0x40, 0x00, 0x00, 0x00, 
  0x00, 0x00, 0x04, 0x60, 0x00, 0x02, 0x00, 0x80, 0x40, 0x00, 0x00, 0x10, 
  0x80, 0x01, 0x08, 0x00, 0x00, 0x00, 0x00, 0x40, 0x00, 0x06, 0x20, 0x0C, 
  0x80, 0x00, 0x0C, 0x40, 0x00, 0x00, 0x00, 0x00, 0x00, 0x10, 0x80, 0x01, 
  0x08, 0x00, 0x00, 0x00, 0x00, 0x00, 0x02, 0x30, 0x00, 0xE1, 0xFF, 0x87, 
  0x00, 0x0C, 0x40, 0x00, 0x00, 0x00, 0x00, 0x00, 0x04, 0x60, 0x00, 0x02, 
  0x00, 0x80, 0x40, 0x00, 0x00, 0x10, 0x80, 0x01, 0x08, 0x00, 0x00, 0x00, 
  0x00, 0x40, 0x00, 0x06, 0x20, 0x00, 0x80, 0x00, 0x0C, 0x40, 0x00, 0x00, 
  0x00, 0x00, 0x00, 0x10, 0x80, 0x01, 0x08, 0x00, 0x00, 0x00, 0x00, 0x00, 
  0x02, 0x30, 0x00, 0xE1, 0xFF, 0x87, 0x00, 0x0C, 0x40, 0x00, 0x00, 0x00, 
  0x00, 0x00, 0x04, 0x60, 0x00, 0x02, 0x00, 0x80, 0x40, 0x00, 0x00, 0x10, 
  0x80, 0x01, 0x08, 0x00, 0x00, 0x00, 0x00, 0x40, 0x00, 0x06, 0x20, 0x00, 
  0x80, 0x00, 0x0C, 0x40, 0x00, 0x00, 0x00, 0x00, 0x00, 0x10, 0x80, 0x01, 
  0x08, 0x00, 0x00, 0x00, 0x00, 0x00, 0x02, 0x30, 0x00, 0x01, 0x18, 0x80, 
  0x00, 0x0C, 0x40, 0x00, 0x00, 0x00, 0x00, 0x00, 0x04, 0x60, 0x00, 0x02, 
  0x00, 0x80, 0x40, 0x00, 0x00, 0x10, 0x80, 0x01, 0x08, 0x00, 0x00, 0x00, 
  0x00, 0x40, 0x00, 0x06, 0x20, 0x00, 0x80, 0xFF, 0xFF, 0x7F, 0x00, 0x00, 
  0x00, 0x00, 0x00, 0xF0, 0xFF, 0xFF, 0x0F, 0x00, 0x00, 0x00, 0x00, 0x00, 
  0xFE, 0xFF, 0xFF, 0x01, 0x00, 0x80, 0xFF, 0xFF, 0x7F, 0x00, 0x00, 0x00, 
  0x00, 0x00, 0xFC, 0xFF, 0xFF, 0x03, 0x00, 0x80, 0x40, 0x00, 0x00, 0xF0, 
  0xFF, 0xFF, 0x0F, 0x00, 0x00, 0x00, 0x00, 0xC0, 0xFF, 0xFF, 0x3F, 0x00, 
  0x00, 0x00, 0x00, 0x00, 0x00, 0x00, 0x00, 0x00, 0x00, 0x00, 0x00, 0x00, 
  0x00, 0x00, 0x00, 0x00, 0x00, 0x00, 0x00, 0x00, 0x00, 0x00, 0x00, 0x00, 
  0x00, 0x00, 0x00, 0x00, 0x00, 0x00, 0x00, 0x00, 0x00, 0x00, 0x00, 0x00, 
  0x00, 0x00, 0x00, 0x00, 0x00, 0x00, 0x00, 0x00, 0x00, 0x00, 0x00, 0x00, 
  0x00, 0x00, 0x00, 0x00, 0x00, 0x00, 0x00, 0x00, 0x00, 0x00, 0xF8, 0xFF, 
  0xFF, 0xFF, 0x1F, 0x00, 0x00, 0x00, 0x00, 0xF8, 0xFF, 0xFF, 0xFF, 0x1F, 
  0x00, 0x00, 0x00, 0x00, 0x00, 0x00, 0x00, 0x00, 0x00, 0xFF, 0xFF, 0xFF, 
  0xFF, 0x01, 0x00, 0x00, 0x00, 0x00, 0xFC, 0xFF, 0xFF, 0xFF, 0x0F, 0x00, 
  0x00, 0x00, 0x00, 0x80, 0xFF, 0xFF, 0xFF, 0xFF, 0x01, 0x00, 0x00, 0x00, 
  0x00, 0x00, 0x00, 0x00, 0xF8, 0xFF, 0xFF, 0xFF, 0x1F, 0x00, 0x00, 0x00, 
  0x00, 0xF8, 0xFF, 0xFF, 0xFF, 0x1F, 0x00, 0x00, 0x00, 0x00, 0x00, 0x00, 
  0x00, 0x00, 0x00, 0xFF, 0xFF, 0xFF, 0xFF, 0x01, 0x00, 0x00, 0x00, 0x00, 
  0xFC, 0xFF, 0xFF, 0xFF, 0x0F, 0x00, 0x00, 0x00, 0x00, 0x80, 0xFF, 0xFF, 
  0xFF, 0xFF, 0x01, 0x00, 0x00, 0x00, 0x00, 0x00, 0x00, 0x00, 0xF8, 0xFF, 
  0xFF, 0xFF, 0x1F, 0x00, 0x00, 0x00, 0x00, 0xF8, 0xFF, 0xFF, 0xFF, 0x1F, 
  0x00, 0x00, 0x00, 0x00, 0x00, 0x00, 0x00, 0x00, 0x00, 0xFF, 0xFF, 0xFF, 
  0xFF, 0x01, 0x00, 0x00, 0x00, 0x00, 0xFC, 0xFF, 0xFF, 0xFF, 0x0F, 0x00, 
  0x00, 0x00, 0x00, 0x80, 0xFF, 0xFF, 0xFF, 0xFF, 0x01, 0x00, 0x00, 0x00, 
  0x00, 0x00, 0x00, 0x00, 0xF8, 0xFF, 0xFF, 0xFF, 0x1F, 0x00, 0x00, 0x00, 
  0x00, 0xF8, 0xFF, 0xFF, 0xFF, 0x1F, 0x00, 0x00, 0x00, 0x00, 0x00, 0x00, 
  0x00, 0x00, 0x00, 0xFF, 0xFF, 0xFF, 0xFF, 0x01, 0x00, 0x00, 0x00, 0x00, 
  0xFC, 0xFF, 0xFF, 0xFF, 0x0F, 0x00, 0x00, 0x00, 0x00, 0x80, 0xFF, 0xFF, 
  0xFF, 0xFF, 0x01, 0x00, 0x00, 0x00, 0x00, 0x00, 0x00, 0x00, 0xF8, 0xFF, 
  0xFF, 0xFF, 0x1F, 0x00, 0x00, 0x00, 0x00, 0xF8, 0xFF, 0xFF, 0xFF, 0x1F, 
  0x00, 0x00, 0x00, 0x00, 0x00, 0x00, 0x00, 0x00, 0x00, 0xFF, 0xFF, 0xFF, 
  0xFF, 0x01, 0x00, 0x00, 0x00, 0x00, 0xFC, 0xFF, 0xFF, 0xFF, 0x0F, 0x00, 
  0x00, 0x00, 0x00, 0x80, 0xFF, 0xFF, 0xFF, 0xFF, 0x01, 0x00, 0x00, 0x00, 
  0x00, 0x00, 0x00, 0x00, 0x00, 0x00, 0x00, 0x00, 0x00, 0x00, 0x00, 0x00, 
  0x00, 0x00, 0x00, 0x00, 0x00, 0x00, 0x00, 0x00, 0x00, 0x00, 0x00, 0x00, 
  0x00, 0x00, 0x00, 0x00, 0x00, 0x00, 0x00, 0x00, 0x00, 0x00, 0x00, 0x00, 
  0x00, 0x00, 0x00, 0x00, 0x00, 0x00, 0x00, 0x00, 0x00, 0x00, 0x00, 0x00, 
  0x00, 0x00, 0x00, 0x00, 0x00, 0x00, 0x00, 0x00, 0x00, 0x00, 0x00, 0x00, 
  0x00, 0x00, 0x00, 0x00, 0x00, 0x00, 0x00, 0x00, 0x00, 0x00, 0x00, 0x00, 
  0x00, 0x00, 0x00, 0x00, 0x00, 0x00, 0x00, 0x00, 0x00, 0x00, 0x00, 0x00, 
  0x00, 0x00, 0x00, 0x00, 0x00, 0x00, 0x00, 0x00, 0x00, 0x00, 0x00, 0x00, 
  0x00, 0x00, 0x00, 0x00, 0x00, 0x00, 0x00, 0x00, 0x00, 0x00, 0x00, 0x00, 
  };
