#define 1506162330689_width 430
#define 1506162330689_height 50
static char 1506162330689_bits[] = {
  0x00, 0x00, 0x00, 0x00, 0x00, 0x00, 0x00, 0x00, 0x00, 0x00, 0x00, 0x00, 
  0x00, 0x00, 0x00, 0x00, 0x00, 0x00, 0x00, 0x00, 0x00, 0x00, 0x00, 0x00, 
  0x00, 0x00, 0x00, 0x00, 0x00, 0x00, 0x00, 0x00, 0x00, 0x00, 0x00, 0x00, 
  0x00, 0x00, 0x00, 0x00, 0x00, 0x00, 0x00, 0x00, 0x00, 0x00, 0x00, 0x00, 
  0x00, 0x00, 0x00, 0x00, 0x00, 0x00, 0x00, 0x00, 0x00, 0x00, 0x00, 0x00, 
  0x00, 0x00, 0x00, 0x00, 0x00, 0x00, 0x00, 0x00, 0x00, 0x00, 0x00, 0x00, 
  0x00, 0x00, 0x00, 0x00, 0x00, 0x00, 0x00, 0x00, 0x00, 0x00, 0x00, 0x00, 
  0x00, 0x00, 0x00, 0x00, 0x00, 0x00, 0x00, 0x00, 0x00, 0x00, 0x00, 0x00, 
  0x00, 0x00, 0x00, 0x00, 0x00, 0x00, 0x00, 0x00, 0x00, 0x00, 0x00, 0x00, 
  0x00, 0x00, 0x00, 0x00, 0x00, 0x00, 0x00, 0x00, 0x00, 0x00, 0x00, 0x00, 
  0x00, 0x00, 0x00, 0x00, 0x00, 0x00, 0x00, 0x00, 0x00, 0x00, 0x00, 0x00, 
  0x00, 0x00, 0x00, 0x00, 0x00, 0x00, 0x00, 0x00, 0x00, 0x00, 0x00, 0x00, 
  0x00, 0x00, 0x00, 0x00, 0x00, 0x00, 0x00, 0x00, 0x00, 0x00, 0x00, 0x00, 
  0x00, 0x00, 0x00, 0x00, 0x00, 0x00, 0x00, 0x00, 0x00, 0x00, 0x00, 0x00, 
  0x00, 0x00, 0x00, 0x00, 0x00, 0x00, 0x00, 0x00, 0x00, 0x00, 0x00, 0x00, 
  0x00, 0x00, 0x00, 0x00, 0x00, 0x00, 0x00, 0x00, 0x00, 0x00, 0x00, 0x00, 
  0x00, 0x00, 0x00, 0x00, 0x00, 0x00, 0x00, 0x00, 0x00, 0x00, 0x00, 0x00, 
  0x00, 0x00, 0x00, 0x00, 0x00, 0x00, 0x00, 0x00, 0x00, 0x00, 0x00, 0x00, 
  0x00, 0x00, 0x00, 0x00, 0x00, 0x00, 0x00, 0x00, 0x00, 0x00, 0x00, 0x00, 
  0x00, 0x00, 0x00, 0x00, 0x00, 0x00, 0x00, 0x00, 0x00, 0x00, 0x00, 0x00, 
  0x00, 0x00, 0x00, 0x00, 0x00, 0x00, 0x00, 0x00, 0x00, 0x00, 0x00, 0x00, 
  0x00, 0x00, 0x00, 0x00, 0x00, 0x00, 0x00, 0x00, 0x00, 0x00, 0x00, 0x00, 
  0x00, 0x00, 0x00, 0x00, 0x00, 0x00, 0x00, 0x00, 0x00, 0x00, 0x00, 0x00, 
  0x00, 0x00, 0x00, 0x00, 0x00, 0x00, 0x00, 0x00, 0x00, 0x00, 0x00, 0x00, 
  0x00, 0x00, 0x00, 0x00, 0x00, 0x00, 0x00, 0x00, 0x00, 0x00, 0x00, 0x00, 
  0x00, 0x00, 0x00, 0x00, 0x00, 0x00, 0x00, 0x00, 0x00, 0x00, 0x00, 0x00, 
  0x00, 0x00, 0x00, 0x00, 0x00, 0x00, 0x00, 0x00, 0x00, 0x00, 0x00, 0x00, 
  0x00, 0x00, 0x00, 0x00, 0x00, 0x00, 0x00, 0x00, 0x00, 0x00, 0x00, 0x00, 
  0x00, 0x00, 0x00, 0x00, 0x00, 0x00, 0x00, 0x00, 0x00, 0x00, 0x00, 0x00, 
  0x00, 0x00, 0x00, 0x00, 0x00, 0x00, 0x00, 0x00, 0x00, 0x00, 0x00, 0x00, 
  0x00, 0x00, 0x00, 0x00, 0x00, 0x00, 0x00, 0x00, 0x00, 0x00, 0x00, 0x00, 
  0x00, 0x00, 0x00, 0x00, 0x00, 0x00, 0x00, 0x00, 0x00, 0x00, 0x00, 0x00, 
  0x00, 0x00, 0x00, 0x00, 0x00, 0x00, 0x00, 0x00, 0xE0, 0xFF, 0xFF, 0xFF, 
  0x01, 0x80, 0xFF, 0xFF, 0xFF, 0xFF, 0xFF, 0xFF, 0xFF, 0x1F, 0x00, 0xFC, 
  0xFF, 0xFF, 0xFF, 0xFF, 0xFF, 0xFF, 0xFF, 0x00, 0xC0, 0xFF, 0xFF, 0xFF, 
  0xFF, 0xFF, 0xFF, 0xFF, 0x0F, 0x00, 0xFC, 0xFF, 0xFF, 0x3F, 0x00, 0x00, 
  0x00, 0x00, 0x00, 0x00, 0x00, 0x00, 0x00, 0x00, 0x00, 0x00, 0x00, 0x00, 
  0x00, 0x00, 0x78, 0x00, 0x00, 0x00, 0x01, 0x80, 0x00, 0x00, 0x00, 0x00, 
  0x00, 0x00, 0x00, 0x10, 0x00, 0x04, 0x00, 0x00, 0x00, 0x00, 0x00, 0x00, 
  0x80, 0x00, 0x40, 0x00, 0x00, 0x00, 0x00, 0x00, 0x00, 0x00, 0x08, 0x00, 
  0x04, 0x00, 0x00, 0xF0, 0x00, 0x00, 0x00, 0x00, 0x00, 0x00, 0x00, 0x00, 
  0x00, 0x00, 0x00, 0x00, 0x00, 0x00, 0x00, 0x00, 0x3E, 0x00, 0x00, 0x00, 
  0x01, 0x80, 0x00, 0x00, 0x00, 0x00, 0x00, 0x00, 0x00, 0x10, 0x00, 0x04, 
  0x00, 0x00, 0x00, 0x00, 0x00, 0x00, 0x80, 0x00, 0x40, 0x00, 0x00, 0x00, 
  0x00, 0x00, 0x00, 0x00, 0x08, 0x00, 0x04, 0x00, 0x00, 0xE0, 0x03, 0x00, 
  0x00, 0x00, 0x00, 0x00, 0x00, 0x00, 0x00, 0x00, 0x00, 0x00, 0x00, 0x00, 
  0x00, 0x00, 0x1F, 0x00, 0x00, 0x00, 0x01, 0x80, 0x00, 0x00, 0x00, 0x00, 
  0x00, 0x00, 0x00, 0x10, 0x00, 0x04, 0x00, 0x00, 0x00, 0x00, 0x00, 0x00, 
  0x80, 0x00, 0x40, 0x00, 0x00, 0x00, 0x00, 0x00, 0x00, 0x00, 0x08, 0x00, 
  0x04, 0x00, 0x00, 0xC0, 0x07, 0x00, 0x00, 0x00, 0x00, 0x00, 0x00, 0x00, 
  0x00, 0x00, 0x00, 0x00, 0x00, 0x00, 0x00, 0x00, 0x0F, 0x00, 0x00, 0x00, 
  0x01, 0x80, 0x00, 0x00, 0x00, 0x00, 0x00, 0x00, 0x00, 0x10, 0x00, 0x04, 
  0x00, 0x00, 0x00, 0x00, 0x00, 0x00, 0x80, 0x00, 0x40, 0x00, 0x00, 0x00, 
  0x00, 0x00, 0x00, 0x00, 0x08, 0x00, 0x04, 0x00, 0x00, 0x80, 0x07, 0x00, 
  0x00, 0x00, 0x00, 0x00, 0x00, 0x00, 0x00, 0x00, 0x00, 0x00, 0x00, 0x00, 
  0x00, 0x80, 0x1F, 0x00, 0x00, 0x00, 0x01, 0x80, 0x00, 0x00, 0x00, 0x00, 
  0x00, 0x00, 0x00, 0x10, 0x00, 0x04, 0x00, 0x00, 0x00, 0x00, 0x00, 0x00, 
  0x80, 0x00, 0x40, 0x00, 0x00, 0x00, 0x00, 0x00, 0x00, 0x00, 0x08, 0x00, 
  0x04, 0x00, 0x00, 0xC0, 0x0F, 0x00, 0x00, 0x00, 0x00, 0x00, 0x00, 0x00, 
  0x00, 0x00, 0x00, 0x00, 0x00, 0x00, 0x00, 0x80, 0x37, 0x00, 0x00, 0x00, 
  0x01, 0x80, 0x00, 0x00, 0x00, 0x00, 0x00, 0x00, 0x00, 0x10, 0x00, 0x04, 
  0x00, 0x00, 0x00, 0x00, 0x00, 0x00, 0x80, 0x00, 0x40, 0x00, 0x00, 0x00, 
  0x00, 0x00, 0x00, 0x00, 0x08, 0x00, 0x04, 0x00, 0x00, 0x60, 0x0F, 0x00, 
  0x00, 0x00, 0x00, 0x00, 0x00, 0x00, 0x00, 0x00, 0x00, 0x00, 0x00, 0x00, 
  0x00, 0xC0, 0x67, 0x00, 0x00, 0x00, 0x01, 0x80, 0x00, 0x00, 0x00, 0x00, 
  0x00, 0x00, 0x00, 0x10, 0x00, 0x04, 0x00, 0x00, 0x00, 0x00, 0x00, 0x00, 
  0x80, 0x00, 0x40, 0x00, 0x00, 0x00, 0x00, 0x00, 0x00, 0x00, 0x08, 0x00, 
  0x04, 0x00, 0x00, 0x30, 0x1F, 0x00, 0x00, 0x00, 0x00, 0x00, 0x00, 0x00, 
  0x00, 0x00, 0x00, 0x00, 0x00, 0x00, 0x00, 0xC0, 0xC3, 0x00, 0x00, 0x00, 
  0x01, 0x80, 0x00, 0x00, 0x00, 0x00, 0x00, 0x00, 0x00, 0x10, 0x00, 0x04, 
  0x00, 0x00, 0x00, 0x00, 0x00, 0x00, 0x80, 0x00, 0x40, 0x00, 0x00, 0x00, 
  0x00, 0x00, 0x00, 0x00, 0x08, 0x00, 0x04, 0x00, 0x00, 0x18, 0x1E, 0x00, 
  0x00, 0x00, 0x00, 0x00, 0x00, 0x00, 0x00, 0x00, 0x00, 0x00, 0x00, 0x00, 
  0x00, 0xE0, 0x83, 0x01, 0x00, 0x00, 0x01, 0x80, 0x00, 0x00, 0x00, 0x00, 
  0x00, 0x00, 0x00, 0x10, 0x00, 0x04, 0x00, 0x00, 0x00, 0x00, 0x00, 0x00, 
  0x80, 0x00, 0x40, 0x00, 0x00, 0x00, 0x00, 0x00, 0x00, 0x00, 0x08, 0x00, 
  0x04, 0x00, 0x00, 0x0C, 0x3E, 0x00, 0x00, 0x00, 0x00, 0x00, 0x00, 0x00, 
  0x00, 0x00, 0x00, 0x00, 0x00, 0x00, 0x00, 0xE0, 0x01, 0xFF, 0xFF, 0xFF, 
  0x01, 0x80, 0xFF, 0xFF, 0xFF, 0xFF, 0xFF, 0xFF, 0xFF, 0x1F, 0x00, 0xFC, 
  0xFF, 0xFF, 0xFF, 0xFF, 0xFF, 0xFF, 0xFF, 0x00, 0xC0, 0xFF, 0xFF, 0xFF, 
  0xFF, 0xFF, 0xFF, 0xFF, 0x0F, 0x00, 0xFC, 0xFF, 0xFF, 0x07, 0x3C, 0x00, 
  0x00, 0x00, 0x00, 0x00, 0x00, 0x00, 0x00, 0x00, 0x00, 0x00, 0x00, 0x00, 
  0x00, 0xE0, 0x01, 0x07, 0x30, 0x80, 0x01, 0x00, 0x00, 0x00, 0x0E, 0x60, 
  0x00, 0x07, 0x00, 0x00, 0x00, 0x00, 0x00, 0x70, 0x00, 0x03, 0x38, 0x00, 
  0x00, 0x00, 0x00, 0x00, 0x00, 0x07, 0x30, 0x80, 0x03, 0x00, 0x00, 0x00, 
  0x0C, 0x60, 0x00, 0x07, 0x3C, 0x00, 0x00, 0x00, 0x00, 0x00, 0x00, 0x00, 
  0x00, 0x00, 0x00, 0x00, 0x00, 0x00, 0x00, 0xF0, 0x01, 0x07, 0x30, 0x80, 
  0x01, 0x00, 0x00, 0x00, 0x0E, 0x60, 0x00, 0x07, 0x00, 0x00, 0x00, 0x00, 
  0x00, 0x70, 0x00, 0x03, 0x38, 0x00, 0x00, 0x00, 0x00, 0x00, 0x00, 0x07, 
  0x30, 0x80, 0x03, 0x00, 0x00, 0x00, 0x0C, 0x60, 0x00, 0x07, 0x7C, 0x00, 
  0x00, 0x00, 0x00, 0x00, 0x00, 0x00, 0x00, 0x00, 0x00, 0x00, 0x00, 0x00, 
  0x00, 0xF0, 0x00, 0x07, 0x30, 0x80, 0x01, 0x00, 0x00, 0x00, 0x0E, 0x60, 
  0x00, 0x07, 0x00, 0x00, 0x00, 0x00, 0x00, 0x70, 0x00, 0x03, 0x38, 0x00, 
  0x00, 0x00, 0x00, 0x00, 0x00, 0x07, 0x30, 0x80, 0x03, 0x00, 0x00, 0x00, 
  0x0C, 0x60, 0x00, 0x07, 0x78, 0x00, 0x00, 0x00, 0x00, 0x00, 0x00, 0x00, 
  0x00, 0x00, 0x00, 0x00, 0x00, 0x00, 0x00, 0xF0, 0x00, 0x07, 0x30, 0x80, 
  0x01, 0x00, 0x00, 0x00, 0x0E, 0x60, 0x00, 0x07, 0x00, 0x00, 0x00, 0x00, 
  0x00, 0x70, 0x00, 0x03, 0x38, 0x00, 0x00, 0x00, 0x00, 0x00, 0x00, 0x07, 
  0x30, 0x80, 0x03, 0x00, 0x00, 0x00, 0x0C, 0x60, 0x00, 0x07, 0x78, 0x00, 
  0x00, 0x00, 0x00, 0x00, 0x00, 0x00, 0x00, 0x00, 0x00, 0x00, 0x00, 0x00, 
  0x00, 0xF0, 0x00, 0x07, 0x30, 0x80, 0x01, 0x00, 0x00, 0x00, 0x0E, 0x60, 
  0x00, 0x07, 0x00, 0x00, 0x00, 0x00, 0x00, 0x70, 0x00, 0x03, 0x38, 0x00, 
  0x00, 0x00, 0x00, 0x00, 0x00, 0x07, 0x30, 0x80, 0x03, 0x00, 0x00, 0x00, 
  0x0C, 0x60, 0x00, 0x07, 0x78, 0x00, 0x00, 0x00, 0x00, 0x00, 0x00, 0x00, 
  0x00, 0x00, 0x00, 0x00, 0x00, 0x00, 0x00, 0xF8, 0x00, 0x07, 0x30, 0x80, 
  0x01, 0x00, 0x00, 0x00, 0x0E, 0x60, 0x00, 0x07, 0x00, 0x00, 0x00, 0x00, 
  0x00, 0x70, 0x00, 0x03, 0x38, 0x00, 0x00, 0x00, 0x00, 0x00, 0x00, 0x07, 
  0x30, 0x80, 0x03, 0x00, 0x00, 0x00, 0x0C, 0x60, 0x00, 0x07, 0xF8, 0x00, 
  0x00, 0x00, 0x00, 0x00, 0x00, 0x00, 0x00, 0x00, 0x00, 0x00, 0x00, 0x00, 
  0x00, 0x78, 0x00, 0x07, 0x30, 0x80, 0x01, 0x00, 0x00, 0x00, 0x0E, 0x60, 
  0x00, 0x07, 0x00, 0x00, 0x00, 0x00, 0x00, 0x70, 0x00, 0x03, 0x38, 0x00, 
  0x00, 0x00, 0x00, 0x00, 0x00, 0x07, 0x30, 0x80, 0x03, 0x00, 0x00, 0x00, 
  0x0C, 0x60, 0x00, 0x07, 0xF0, 0x00, 0x00, 0x00, 0x00, 0x00, 0x00, 0x00, 
  0x00, 0x00, 0x00, 0x00, 0x00, 0x00, 0x00, 0x78, 0x00, 0x07, 0x30, 0x80, 
  0x01, 0x00, 0x00, 0x00, 0x0E, 0x60, 0x00, 0x07, 0x00, 0x00, 0x00, 0x00, 
  0x00, 0x70, 0x00, 0x03, 0x38, 0x00, 0x00, 0x00, 0x00, 0x00, 0x00, 0x07, 
  0x30, 0x80, 0x03, 0x00, 0x00, 0x00, 0x0C, 0x60, 0x00, 0x07, 0xF0, 0x00, 
  0x00, 0x00, 0x00, 0x00, 0x00, 0x00, 0x00, 0x00, 0x00, 0x00, 0x00, 0x00, 
  0x00, 0x78, 0x00, 0x07, 0x30, 0x80, 0x01, 0x00, 0x00, 0x00, 0x0E, 0x60, 
  0x00, 0x07, 0x00, 0x00, 0x00, 0x00, 0x00, 0x70, 0x00, 0x03, 0x38, 0x00, 
  0x00, 0x00, 0x00, 0x00, 0x00, 0x07, 0x30, 0x80, 0x03, 0x00, 0x00, 0x00, 
  0x0C, 0x60, 0x00, 0x07, 0xF0, 0x00, 0x00, 0x00, 0x00, 0x00, 0x00, 0x00, 
  0x00, 0x00, 0x00, 0x00, 0x00, 0x00, 0x00, 0x78, 0x00, 0x07, 0x30, 0x80, 
  0x01, 0x00, 0x00, 0x00, 0x0E, 0x60, 0x00, 0x07, 0x00, 0x00, 0x00, 0x00, 
  0x00, 0x70, 0x00, 0x03, 0x38, 0x00, 0x00, 0x00, 0x00, 0x00, 0x00, 0x07, 
  0x30, 0x80, 0x03, 0x00, 0x00, 0x00, 0x0C, 0x60, 0x00, 0x07, 0xF0, 0x00, 
  0x00, 0x00, 0x00, 0x00, 0x00, 0x00, 0x00, 0x00, 0x00, 0x00, 0x00, 0x00, 
  0x00, 0x78, 0x00, 0x07, 0x30, 0x80, 0x01, 0x00, 0x00, 0x00, 0x0E, 0x60, 
  0x00, 0x07, 0x00, 0x00, 0x00, 0x00, 0x00, 0x70, 0x00, 0x03, 0x38, 0x00, 
  0x00, 0x00, 0x00, 0x00, 0x00, 0x07, 0x30, 0x80, 0x03, 0x00, 0x00, 0x00, 
  0x0C, 0x60, 0x00, 0x07, 0xF0, 0x00, 0x00, 0x00, 0x00, 0x00, 0x00, 0x00, 
  0x00, 0x00, 0x00, 0x00, 0x00, 0x00, 0x00, 0x7C, 0x00, 0x07, 0x30, 0x80, 
  0x01, 0x00, 0x00, 0x00, 0x0E, 0x60, 0x00, 0x07, 0x00, 0x00, 0x00, 0x00, 
  0x00, 0x70, 0x00, 0x03, 0x38, 0x00, 0x00, 0x00, 0x00, 0x00, 0x00, 0x07, 
  0x30, 0x80, 0x03, 0x00, 0x00, 0x00, 0x0C, 0x60, 0x00, 0x07, 0xF0, 0x01, 
  0x00, 0x00, 0x00, 0x00, 0x00, 0x00, 0x00, 0x00, 0x00, 0x00, 0x00, 0x00, 
  0x00, 0x3C, 0x00, 0x07, 0x30, 0x80, 0x01, 0x00, 0x00, 0x00, 0x0E, 0x60, 
  0x00, 0x07, 0x00, 0x00, 0x00, 0x00, 0x00, 0x70, 0x00, 0x03, 0x38, 0x00, 
  0x00, 0x00, 0x00, 0x00, 0x00, 0x07, 0x30, 0x80, 0x03, 0x00, 0x00, 0x00, 
  0x0C, 0x60, 0x00, 0x07, 0xE0, 0x01, 0x00, 0x00, 0x00, 0x00, 0x00, 0x00, 
  0x00, 0x00, 0x00, 0x00, 0x00, 0x00, 0x00, 0x3C, 0x00, 0x07, 0x30, 0x80, 
  0x01, 0x00, 0x00, 0x00, 0x0E, 0x60, 0x00, 0x07, 0x00, 0x00, 0x00, 0x00, 
  0x00, 0x70, 0x00, 0x03, 0x38, 0x00, 0x00, 0x00, 0x00, 0x00, 0x00, 0x07, 
  0x30, 0x80, 0x03, 0x00, 0x00, 0x00, 0x0C, 0x60, 0x00, 0x07, 0xE0, 0x01, 
  0x00, 0x00, 0x00, 0x00, 0x00, 0x00, 0x00, 0x00, 0x00, 0x00, 0x00, 0x00, 
  0x00, 0x3C, 0x00, 0x07, 0x30, 0x80, 0x01, 0x00, 0x00, 0x00, 0x0E, 0x60, 
  0x00, 0x07, 0x00, 0x00, 0x00, 0x00, 0x00, 0x70, 0x00, 0x03, 0x38, 0x00, 
  0x00, 0x00, 0x00, 0x00, 0x00, 0x07, 0x30, 0x80, 0x03, 0x00, 0x00, 0x00, 
  0x0C, 0x60, 0x00, 0x07, 0xE0, 0x01, 0x00, 0x00, 0x00, 0x00, 0x00, 0x00, 
  0x00, 0x00, 0x00, 0x00, 0x00, 0x00, 0x00, 0x3C, 0x00, 0x07, 0x30, 0x80, 
  0x01, 0x00, 0x00, 0x00, 0x0E, 0x60, 0x00, 0x07, 0x00, 0x00, 0x00, 0x00, 
  0x00, 0x70, 0x00, 0x03, 0x38, 0x00, 0x00, 0x00, 0x00, 0x00, 0x00, 0x07, 
  0x30, 0x80, 0x03, 0x00, 0x00, 0x00, 0x0C, 0x60, 0x00, 0x07, 0xE0, 0x01, 
  0x00, 0x00, 0x00, 0x00, 0x00, 0x00, 0x00, 0x00, 0x00, 0x00, 0x00, 0x00, 
  0x00, 0x3C, 0x00, 0x07, 0x30, 0x80, 0x01, 0x00, 0x00, 0x00, 0x0E, 0x60, 
  0x00, 0x07, 0x00, 0x00, 0x00, 0x00, 0x00, 0x70, 0x00, 0x03, 0x38, 0x00, 
  0x00, 0x00, 0x00, 0x00, 0x00, 0x07, 0x30, 0x80, 0x03, 0x00, 0x00, 0x00, 
  0x0C, 0x60, 0x00, 0x07, 0xE0, 0x01, 0x00, 0x00, 0x00, 0x00, 0x00, 0x00, 
  0x00, 0x00, 0x00, 0x00, 0x00, 0x00, 0x00, 0x1C, 0x00, 0x06, 0x30, 0x80, 
  0x01, 0x80, 0x00, 0x00, 0x0C, 0x60, 0x00, 0x03, 0x00, 0x10, 0x00, 0x04, 
  0x00, 0x60, 0x00, 0x03, 0x18, 0x00, 0x80, 0x00, 0x40, 0x00, 0x00, 0x06, 
  0x30, 0x80, 0x01, 0x00, 0x08, 0x00, 0x0C, 0x60, 0x00, 0x03, 0xC0, 0x01, 
  0x00, 0x00, 0x00, 0x00, 0x00, 0x00, 0x00, 0x00, 0x00, 0x00, 0x00, 0x00, 
  0x00, 0x1C, 0x00, 0x06, 0x30, 0x80, 0x01, 0x80, 0x00, 0x00, 0x0C, 0x60, 
  0x00, 0x03, 0x00, 0x10, 0x00, 0x04, 0x00, 0x60, 0x00, 0x03, 0x18, 0x00, 
  0x80, 0x00, 0x40, 0x00, 0x00, 0x06, 0x30, 0x80, 0x01, 0x00, 0x08, 0x00, 
  0x0C, 0x60, 0x00, 0x03, 0xC0, 0x01, 0x00, 0x00, 0x00, 0x00, 0x00, 0x00, 
  0x00, 0x00, 0x00, 0x00, 0x00, 0x00, 0x00, 0x1C, 0x00, 0x06, 0x30, 0x80, 
  0x01, 0x80, 0x00, 0x00, 0x0C, 0x60, 0x00, 0x03, 0x00, 0x10, 0x00, 0x04, 
  0x00, 0x60, 0x00, 0x03, 0x18, 0x00, 0x80, 0x00, 0x40, 0x00, 0x00, 0x06, 
  0x30, 0x80, 0x01, 0x00, 0x08, 0x00, 0x0C, 0x60, 0x00, 0x03, 0xC0, 0x01, 
  0x00, 0x00, 0x00, 0x00, 0x00, 0x00, 0x00, 0x00, 0x00, 0x00, 0x00, 0x00, 
  0x00, 0x0C, 0x00, 0x06, 0x30, 0x80, 0x01, 0x80, 0x00, 0x00, 0x0C, 0x60, 
  0x00, 0x03, 0x00, 0x10, 0x00, 0x04, 0x00, 0x60, 0x00, 0x03, 0x18, 0x00, 
  0x80, 0x00, 0x40, 0x00, 0x00, 0x06, 0x30, 0x80, 0x01, 0x00, 0x08, 0x00, 
  0x0C, 0x60, 0x00, 0x03, 0x80, 0x01, 0x00, 0x00, 0x00, 0x00, 0x00, 0x00, 
  0x00, 0x00, 0x00, 0x00, 0x00, 0x00, 0x00, 0x0C, 0x00, 0x06, 0x30, 0x80, 
  0x01, 0x80, 0x00, 0x00, 0x0C, 0x60, 0x00, 0x03, 0x00, 0x10, 0x00, 0x04, 
  0x00, 0x60, 0x00, 0x03, 0x18, 0x00, 0x80, 0x00, 0x40, 0x00, 0x00, 0x06, 
  0x30, 0x80, 0x01, 0x00, 0x08, 0x00, 0x0C, 0x60, 0x00, 0x03, 0x80, 0x01, 
  0x00, 0x00, 0x00, 0x00, 0x00, 0x00, 0x00, 0x00, 0x00, 0x00, 0x00, 0x00, 
  0x00, 0x0F, 0x00, 0x06, 0x30, 0x80, 0x01, 0x80, 0x00, 0x00, 0x0C, 0x60, 
  0x00, 0x03, 0x00, 0x10, 0x00, 0x04, 0x00, 0x60, 0x00, 0x03, 0x18, 0x00, 
  0x80, 0x00, 0x40, 0x00, 0x00, 0x06, 0x30, 0x80, 0x01, 0x00, 0x08, 0x00, 
  0x0C, 0x60, 0x00, 0x03, 0x80, 0x07, 0x00, 0x00, 0x00, 0x00, 0x00, 0x00, 
  0x00, 0x00, 0x00, 0x00, 0x00, 0x00, 0x80, 0xFF, 0xFF, 0xFE, 0xCF, 0xFF, 
  0x01, 0x80, 0xFF, 0xFF, 0xFD, 0x9F, 0xFF, 0xFB, 0xFF, 0x1F, 0x00, 0xFC, 
  0xFF, 0xEF, 0xFF, 0xFC, 0xDF, 0xFF, 0xFF, 0x00, 0xC0, 0xFF, 0xFF, 0xFE, 
  0xCF, 0xFF, 0xFD, 0xFF, 0x0F, 0x00, 0xFC, 0x9F, 0xFF, 0xFB, 0xFF, 0x0F, 
  0x00, 0x00, 0x00, 0x00, 0x00, 0x00, 0x00, 0x00, 0x00, 0x00, 0x00, 0x00, 
  0x80, 0xFF, 0xFF, 0xFE, 0xCF, 0xFF, 0x01, 0x80, 0xFF, 0xFF, 0xFD, 0x9F, 
  0xFF, 0xFB, 0xFF, 0x1F, 0x00, 0xFC, 0xFF, 0xEF, 0xFF, 0xFC, 0xDF, 0xFF, 
  0xFF, 0x00, 0xC0, 0xFF, 0xFF, 0xFE, 0xCF, 0xFF, 0xFD, 0xFF, 0x0F, 0x00, 
  0xFC, 0x9F, 0xFF, 0xFB, 0xFF, 0x0F, 0x00, 0x00, 0x00, 0x00, 0x00, 0x00, 
  0x00, 0x00, 0x00, 0x00, 0x00, 0x00, 0x80, 0xFF, 0xFF, 0xFE, 0xCF, 0xFF, 
  0x01, 0x80, 0xFF, 0xFF, 0xFD, 0x9F, 0xFF, 0xFB, 0xFF, 0x1F, 0x00, 0xFC, 
  0xFF, 0xEF, 0xFF, 0xFC, 0xDF, 0xFF, 0xFF, 0x00, 0xC0, 0xFF, 0xFF, 0xFE, 
  0xCF, 0xFF, 0xFD, 0xFF, 0x0F, 0x00, 0xFC, 0x9F, 0xFF, 0xFB, 0xFF, 0x0F, 
  0x00, 0x00, 0x00, 0x00, 0x00, 0x00, 0x00, 0x00, 0x00, 0x00, 0x00, 0x00, 
  0x80, 0xFF, 0xFF, 0xFE, 0xCF, 0xFF, 0x01, 0x80, 0xFF, 0xFF, 0xFD, 0x9F, 
  0xFF, 0xFB, 0xFF, 0x1F, 0x00, 0xFC, 0xFF, 0xEF, 0xFF, 0xFC, 0xDF, 0xFF, 
  0xFF, 0x00, 0xC0, 0xFF, 0xFF, 0xFE, 0xCF, 0xFF, 0xFD, 0xFF, 0x0F, 0x00, 
  0xFC, 0x9F, 0xFF, 0xFB, 0xFF, 0x0F, 0x00, 0x00, 0x00, 0x00, 0x00, 0x00, 
  0x00, 0x00, 0x00, 0x00, 0x00, 0x00, 0x80, 0xFF, 0xFF, 0xFE, 0xCF, 0xFF, 
  0x01, 0x80, 0xFF, 0xFF, 0xFD, 0x9F, 0xFF, 0xFB, 0xFF, 0x1F, 0x00, 0xFC, 
  0xFF, 0xEF, 0xFF, 0xFC, 0xDF, 0xFF, 0xFF, 0x00, 0xC0, 0xFF, 0xFF, 0xFE, 
  0xCF, 0xFF, 0xFD, 0xFF, 0x0F, 0x00, 0xFC, 0x9F, 0xFF, 0xFB, 0xFF, 0x0F, 
  0x00, 0x00, 0x00, 0x00, 0x00, 0x00, 0x00, 0x00, 0x00, 0x00, 0x00, 0x00, 
  0x00, 0xFF, 0xFF, 0xFE, 0xCF, 0xFF, 0x01, 0x80, 0xFF, 0xFF, 0xFD, 0x9F, 
  0xFF, 0xFB, 0xFF, 0x1F, 0x00, 0xFC, 0xFF, 0xEF, 0xFF, 0xFC, 0xDF, 0xFF, 
  0xFF, 0x00, 0xC0, 0xFF, 0xFF, 0xFE, 0xCF, 0xFF, 0xFD, 0xFF, 0x0F, 0x00, 
  0xFC, 0x9F, 0xFF, 0xFB, 0xFF, 0x07, 0x00, 0x00, 0x00, 0x00, 0x00, 0x00, 
  0x00, 0x00, 0x00, 0x00, 0x00, 0x00, 0x00, 0xFE, 0xFF, 0x00, 0x00, 0x00, 
  0x00, 0x80, 0xFF, 0xFF, 0x01, 0x00, 0x00, 0xF8, 0xFF, 0x1F, 0x00, 0xFC, 
  0xFF, 0x0F, 0x00, 0x00, 0xC0, 0xFF, 0xFF, 0x00, 0xC0, 0xFF, 0xFF, 0x00, 
  0x00, 0x00, 0xFC, 0xFF, 0x0F, 0x00, 0x00, 0x00, 0x00, 0xF8, 0xFF, 0x03, 
  0x00, 0x00, 0x00, 0x00, 0x00, 0x00, 0x00, 0x00, 0x00, 0x00, 0x00, 0x00, 
  0x00, 0x00, 0x00, 0x00, 0x00, 0x00, 0x00, 0x00, 0x00, 0x00, 0x00, 0x00, 
  0x00, 0x00, 0x00, 0x00, 0x00, 0x00, 0x00, 0x00, 0x00, 0x00, 0x00, 0x00, 
  0x00, 0x00, 0x00, 0x00, 0x00, 0x00, 0x00, 0x00, 0x00, 0x00, 0x00, 0x00, 
  0x00, 0x00, 0x00, 0x00, 0x00, 0x00, 0x00, 0x00, 0x00, 0x00, 0x00, 0x00, 
  0x00, 0x00, 0x00, 0x00, 0x00, 0x00, 0x00, 0x00, 0x00, 0x00, 0x00, 0x00, 
  0x00, 0x00, 0x00, 0x00, 0x00, 0x00, 0x00, 0x00, 0x00, 0x00, 0x00, 0x00, 
  0x00, 0x00, 0x00, 0x00, 0x00, 0x00, 0x00, 0x00, 0x00, 0x00, 0x00, 0x00, 
  0x00, 0x00, 0x00, 0x00, 0x00, 0x00, 0x00, 0x00, 0x00, 0x00, 0x00, 0x00, 
  };
